<svg xmlns="http://www.w3.org/2000/svg" xmlns:xlink="http://www.w3.org/1999/xlink" width="294.755" height="50.082" viewBox="0 0 294.755 50.082">
  <defs>
    <linearGradient id="linear-gradient" x1="1" y1="0.5" x2="0" y2="0.5" gradientUnits="objectBoundingBox">
      <stop offset="0" stop-color="#35a8e0"/>
      <stop offset="1" stop-color="#fff"/>
    </linearGradient>
    <linearGradient id="linear-gradient-2" x1="0.5" y1="1" x2="0.5" y2="0.001" gradientUnits="objectBoundingBox">
      <stop offset="0" stop-color="#fff"/>
      <stop offset="1" stop-color="#35a8e0"/>
    </linearGradient>
    <linearGradient id="linear-gradient-3" x1="0.5" y1="0" x2="0.5" y2="1.001" xlink:href="#linear-gradient-2"/>
  </defs>
  <g id="Sheffield_Haworth__WO__WO" data-name="Sheffield Haworth__WO__WO" transform="translate(-11.06 -10.35)">
    <path id="Path_53" data-name="Path 53" d="M89.637,51.478a4.463,4.463,0,0,1-1.2,1.588,5.673,5.673,0,0,1-1.881.982,8.333,8.333,0,0,1-2.4.335,10.885,10.885,0,0,1-3.666-.641,9.669,9.669,0,0,1-3.265-1.971L79.3,49.214a10.712,10.712,0,0,0,2.294,1.45,6.224,6.224,0,0,0,2.582.533,3.121,3.121,0,0,0,1.737-.407,1.276,1.276,0,0,0,.6-1.132v-.048a1.438,1.438,0,0,0-.126-.6,1.342,1.342,0,0,0-.491-.5,5.391,5.391,0,0,0-1.012-.491A16.732,16.732,0,0,0,83.2,47.53a21.568,21.568,0,0,1-2.247-.677,6.4,6.4,0,0,1-1.707-.923,3.726,3.726,0,0,1-1.084-1.366,4.739,4.739,0,0,1-.389-2.031V42.5a4.685,4.685,0,0,1,.419-2.019,4.559,4.559,0,0,1,1.2-1.552,5.23,5.23,0,0,1,1.8-1.006A7.392,7.392,0,0,1,83.5,37.58a9.711,9.711,0,0,1,3.3.539,9.453,9.453,0,0,1,2.768,1.54L87.7,42.366a12.017,12.017,0,0,0-2.145-1.2,5.506,5.506,0,0,0-2.1-.431,2.552,2.552,0,0,0-1.576.407,1.258,1.258,0,0,0-.527,1.018V42.2a1.444,1.444,0,0,0,.156.689,1.342,1.342,0,0,0,.551.527,4.954,4.954,0,0,0,1.084.443c.461.138,1.042.306,1.743.491a16.774,16.774,0,0,1,2.211.731,6.212,6.212,0,0,1,1.641.982,3.774,3.774,0,0,1,1.006,1.348,4.637,4.637,0,0,1,.335,1.845v.048A5.044,5.044,0,0,1,89.637,51.478Zm13.437,2.672V47.59H96.448v6.56H92.854V37.831h3.594v6.446h6.626V37.831h3.594V54.15Zm7.189,0V37.831h12.3v3.2h-8.746v3.313h7.7v3.2h-7.722v3.409h8.866v3.2Zm18.883-13.09v3.523h7.788v3.241h-7.788V54.15h-3.594V37.831h12.443v3.247Zm14.977,0v3.523h7.788v3.241h-7.788V54.15h-3.594V37.831h12.443v3.247Zm11.532,13.09V37.831h3.594V54.15Zm7.327,0V37.831h12.3v3.2h-8.794v3.313h7.7v3.2h-7.7v3.409h8.854v3.2Zm15.288,0V37.831h3.594V50.909h8.141V54.15Zm28.48-4.936a7.752,7.752,0,0,1-1.8,2.594,8.471,8.471,0,0,1-2.756,1.725,9.525,9.525,0,0,1-3.511.6h-6.362v-16.3h6.38a9.651,9.651,0,0,1,3.511.6,8.387,8.387,0,0,1,2.756,1.719,7.74,7.74,0,0,1,1.8,2.576,8.141,8.141,0,0,1,.629,3.211v.048a8.2,8.2,0,0,1-.647,3.229ZM203.622,46a5.392,5.392,0,0,0-.365-1.989,4.7,4.7,0,0,0-1-1.564,4.523,4.523,0,0,0-1.552-1.018,5.434,5.434,0,0,0-2.007-.359h-2.78v9.843H198.7a5.559,5.559,0,0,0,2.007-.353,4.415,4.415,0,0,0,1.552-1,4.793,4.793,0,0,0,.994-1.54,5.272,5.272,0,0,0,.365-1.989Z" transform="translate(-26.529 -10.917)" fill="url(#linear-gradient)"/>
    <path id="Path_54" data-name="Path 54" d="M301.655,46.986v7.333H299.81V38h1.845v7.243h9.429V38h1.845V54.319h-1.845V46.986Z" transform="translate(-115.768 -11.086)" fill="#fff"/>
    <path id="Path_55" data-name="Path 55" d="M343.118,54.218h-1.983l-1.917-4.337h-8.89L328.393,54.2H326.5l7.446-16.45h1.725Zm-8.333-14.282-3.732,8.333H338.5Z" transform="translate(-126.469 -10.985)" fill="#fff"/>
    <path id="Path_56" data-name="Path 56" d="M364.551,37.89h1.522l4.481,13.653,4.691-13.587h1.935l-5.835,16.456h-1.564L365.3,41.155l-4.5,13.257h-1.54L353.42,37.956h2.007l4.667,13.6Z" transform="translate(-137.262 -11.042)" fill="#fff"/>
    <path id="Path_57" data-name="Path 57" d="M411.511,49.17a8.512,8.512,0,0,1-1.7,2.7,8.171,8.171,0,0,1-6.045,2.546,8.327,8.327,0,0,1-3.4-.677,8.022,8.022,0,0,1-4.319-4.565,8.861,8.861,0,0,1-.6-3.235,8.614,8.614,0,0,1,.6-3.229,8.513,8.513,0,0,1,1.7-2.7,8.123,8.123,0,0,1,2.642-1.857,8.806,8.806,0,0,1,6.8,0,8.022,8.022,0,0,1,4.319,4.517,8.862,8.862,0,0,1,.6,3.235,8.616,8.616,0,0,1-.6,3.265Zm-1.8-5.823a6.47,6.47,0,0,0-1.354-2.169,6.59,6.59,0,0,0-2.043-1.45,6.194,6.194,0,0,0-2.576-.533,6.314,6.314,0,0,0-2.582.521,6.2,6.2,0,0,0-2.019,1.438,6.728,6.728,0,0,0-1.318,2.133,7.218,7.218,0,0,0-.479,2.63,7.3,7.3,0,0,0,.479,2.636,6.422,6.422,0,0,0,3.385,3.594,6.123,6.123,0,0,0,2.576.533,6.314,6.314,0,0,0,2.582-.521,6.116,6.116,0,0,0,2.019-1.438,6.726,6.726,0,0,0,1.318-2.133,7.218,7.218,0,0,0,.479-2.63,7.3,7.3,0,0,0-.455-2.636Z" transform="translate(-154.113 -10.873)" fill="#fff"/>
    <path id="Path_58" data-name="Path 58" d="M440.463,54.318l-4.739-6.35h-4.667v6.35H429.2V38h7.021a8.094,8.094,0,0,1,2.438.347,5.566,5.566,0,0,1,1.857.994,4.451,4.451,0,0,1,1.2,1.54,5.11,5.11,0,0,1,.09,3.834,4.085,4.085,0,0,1-.923,1.4,5.015,5.015,0,0,1-1.408.994,6.589,6.589,0,0,1-1.8.563l5.014,6.668ZM439.2,40.54a4.924,4.924,0,0,0-3.085-.857h-5.056v6.656h5.032a5.775,5.775,0,0,0,1.683-.234,4.194,4.194,0,0,0,1.336-.671,3,3,0,0,0,.875-1.066,3.158,3.158,0,0,0,.317-1.426,2.858,2.858,0,0,0-1.12-2.4Z" transform="translate(-167.644 -11.085)" fill="#fff"/>
    <path id="Path_59" data-name="Path 59" d="M461.887,54.319h-1.845V39.683H454.56V38H467.4v1.7h-5.487Z" transform="translate(-177.812 -11.086)" fill="#fff"/>
    <path id="Path_60" data-name="Path 60" d="M483.009,46.986v7.333H481.17V38h1.839v7.243h9.441V38H494.3V54.319h-1.845V46.986Z" transform="translate(-188.481 -11.086)" fill="#fff"/>
    <circle id="Ellipse_35" data-name="Ellipse 35" cx="1.773" cy="1.773" r="1.773" transform="translate(39.486 33.636)" fill="#fff"/>
    <circle id="Ellipse_36" data-name="Ellipse 36" cx="1.773" cy="1.773" r="1.773" transform="translate(34.741 33.636)" fill="#fff"/>
    <circle id="Ellipse_37" data-name="Ellipse 37" cx="1.773" cy="1.773" r="1.773" transform="translate(29.997 33.636)" fill="#fff"/>
    <circle id="Ellipse_38" data-name="Ellipse 38" cx="1.773" cy="1.773" r="1.773" transform="translate(25.252 33.636)" fill="#fff"/>
    <circle id="Ellipse_39" data-name="Ellipse 39" cx="1.773" cy="1.773" r="1.773" transform="translate(20.507 33.636)" fill="#fff"/>
    <circle id="Ellipse_40" data-name="Ellipse 40" cx="1.773" cy="1.773" r="1.773" transform="translate(15.763 33.636)" fill="#fff"/>
    <circle id="Ellipse_41" data-name="Ellipse 41" cx="1.773" cy="1.773" r="1.773" transform="translate(11.06 33.636)" fill="#fff"/>
    <path id="Path_61" data-name="Path 61" d="M39.952,26.633a1.42,1.42,0,1,1,1.42,1.42,1.42,1.42,0,0,1-1.42-1.42Zm1.42,5.811a1.6,1.6,0,1,0-1.6-1.6,1.6,1.6,0,0,0,1.6,1.6Zm0-8.423a1.246,1.246,0,1,0-1.24-1.246,1.246,1.246,0,0,0,1.24,1.246Zm0-9.975a.707.707,0,1,0-.5-.2.713.713,0,0,0,.5.2Zm0,3a.9.9,0,1,1,0-.024Zm0,3.325a1.046,1.046,0,1,1,0-.042Zm0-8.908a.521.521,0,1,1,0-.024ZM36.627,28.053a1.42,1.42,0,1,0-1.42-1.42A1.42,1.42,0,0,0,36.627,28.053Zm0,4.391a1.6,1.6,0,1,0-1.6-1.6A1.6,1.6,0,0,0,36.627,32.444Zm0-8.423a1.24,1.24,0,1,0-.879-.365,1.246,1.246,0,0,0,.879.365Zm0-9.975a.713.713,0,1,0-.707-.707.713.713,0,0,0,.707.707Zm0,3a.9.9,0,1,1,0-.024Zm0,3.325a1.046,1.046,0,1,1,0-.042Zm0-8.908a.521.521,0,1,1,0-.024ZM31.882,28.053a1.42,1.42,0,1,0-1.42-1.42A1.42,1.42,0,0,0,31.882,28.053Zm0,4.391a1.6,1.6,0,1,0-1.576-1.6A1.6,1.6,0,0,0,31.882,32.444Zm0-8.423a1.246,1.246,0,1,0-1.24-1.246,1.246,1.246,0,0,0,1.24,1.246Zm0-9.975a.713.713,0,1,0-.707-.707.713.713,0,0,0,.707.707Zm0,3a.9.9,0,1,1,0-.024Zm0,3.325a1.046,1.046,0,1,1,0-.042Zm0-8.908a.521.521,0,1,1,0-.024ZM27.138,28.053a1.42,1.42,0,1,0-1.42-1.42A1.42,1.42,0,0,0,27.138,28.053Zm0,4.391a1.6,1.6,0,1,0-1.594-1.6,1.6,1.6,0,0,0,1.594,1.6Zm0-8.423a1.246,1.246,0,1,0-1.24-1.246,1.246,1.246,0,0,0,1.24,1.246Zm0-9.975a.713.713,0,1,0-.707-.707.713.713,0,0,0,.707.707Zm0,3a.9.9,0,1,1,0-.024Zm0,3.325a1.046,1.046,0,1,1,0-.042Zm0-8.908a.521.521,0,1,1,0-.024ZM22.393,28.053a1.42,1.42,0,1,0-1.42-1.42A1.42,1.42,0,0,0,22.393,28.053Zm0,4.391a1.6,1.6,0,1,0-1.594-1.6,1.6,1.6,0,0,0,1.594,1.6Zm0-8.423a1.246,1.246,0,1,0-1.24-1.246,1.246,1.246,0,0,0,1.24,1.246Zm0-9.975a.713.713,0,1,0-.707-.707.713.713,0,0,0,.707.707Zm0,3a.9.9,0,1,1,0-.024Zm0,3.325a1.069,1.069,0,1,1,0-.042Zm0-8.908a.521.521,0,1,1,0-.024ZM17.648,28.053a1.42,1.42,0,1,0-1.42-1.42A1.42,1.42,0,0,0,17.648,28.053Zm0,4.391a1.6,1.6,0,1,0-1.594-1.6,1.6,1.6,0,0,0,1.594,1.6Zm0-8.423a1.246,1.246,0,1,0-1.24-1.246,1.246,1.246,0,0,0,1.24,1.246Zm0-9.975a.713.713,0,1,0-.707-.707.713.713,0,0,0,.707.707Zm0,3a.9.9,0,1,1,0-.024Zm0,3.325a1.045,1.045,0,1,1,0-.042Zm0-8.908a.521.521,0,1,1,0-.024ZM12.934,28.053a1.42,1.42,0,1,0-1.42-1.42A1.42,1.42,0,0,0,12.934,28.053Zm0,4.391a1.6,1.6,0,1,0-1.594-1.6,1.6,1.6,0,0,0,1.594,1.6Zm0-8.423a1.246,1.246,0,1,0-1.2-1.246,1.246,1.246,0,0,0,1.2,1.246Zm0-9.975a.713.713,0,1,0-.707-.707.713.713,0,0,0,.707.707Zm0,3a.9.9,0,1,1,0-.024Zm0,3.283a1.066,1.066,0,1,0-1.066-1.066,1.066,1.066,0,0,0,1.066,1.066Zm0-8.908a.223.223,0,1,0,0,.018Z" transform="translate(-0.112 0)" opacity="0.8" fill="url(#linear-gradient-2)"/>
    <path id="Path_62" data-name="Path 62" d="M42.787,62.951a1.42,1.42,0,1,1-1.42-1.42A1.42,1.42,0,0,1,42.787,62.951Zm-1.42-5.811a1.6,1.6,0,1,0,1.6,1.6,1.6,1.6,0,0,0-1.6-1.6Zm0,8.423a1.246,1.246,0,1,0,1.24,1.24A1.246,1.246,0,0,0,41.367,65.563Zm0,9.975a.713.713,0,1,0,.707.689.713.713,0,0,0-.707-.689Zm0-3a.376.376,0,1,1,0,.024Zm0-3.325a1.054,1.054,0,1,1,0,.024Zm0,8.908a.521.521,0,1,1,0,.024ZM36.623,61.531a1.42,1.42,0,1,0,1.42,1.42,1.42,1.42,0,0,0-1.42-1.42Zm0-4.391a1.6,1.6,0,1,0,1.6,1.6A1.6,1.6,0,0,0,36.623,57.14Zm0,8.423a1.246,1.246,0,1,0,1.24,1.24A1.246,1.246,0,0,0,36.623,65.563Zm0,9.975a.713.713,0,1,0,.713.689.713.713,0,0,0-.713-.689Zm0-3a.892.892,0,1,1,0,.024Zm0-3.325a1.054,1.054,0,1,1,0,.024Zm0,8.908a.521.521,0,1,1,0,.024ZM31.878,61.531a1.42,1.42,0,1,0,1.42,1.42,1.42,1.42,0,0,0-1.42-1.42Zm0-4.391a1.6,1.6,0,1,0,1.6,1.6A1.6,1.6,0,0,0,31.878,57.14Zm0,8.423a1.24,1.24,0,1,0,.881.361A1.246,1.246,0,0,0,31.878,65.563Zm0,9.975a.713.713,0,1,0,.713.689.713.713,0,0,0-.713-.689Zm0-3a.875.875,0,1,1,0,.024Zm0-3.325a1.054,1.054,0,1,1,0,.024Zm0,8.908a.521.521,0,1,1,0,.024ZM27.133,61.531a1.42,1.42,0,1,0,1.42,1.42,1.42,1.42,0,0,0-1.42-1.42Zm0-4.391a1.594,1.594,0,1,0,1.133.467A1.6,1.6,0,0,0,27.133,57.14Zm0,8.423a1.24,1.24,0,1,0,.881.361A1.246,1.246,0,0,0,27.133,65.563Zm0,9.975a.713.713,0,1,0,.713.689.713.713,0,0,0-.713-.689Zm0-3a.875.875,0,1,1,0,.024Zm0-3.325a1.054,1.054,0,1,1,0,.024Zm0,8.908a.521.521,0,1,1,0,.024ZM22.389,61.531a1.42,1.42,0,1,0,1.42,1.42,1.42,1.42,0,0,0-1.42-1.42Zm0-4.391a1.594,1.594,0,1,0,1.133.467A1.6,1.6,0,0,0,22.389,57.14Zm0,8.423a1.24,1.24,0,1,0,.881.361A1.246,1.246,0,0,0,22.389,65.563Zm0,9.975a.713.713,0,1,0,.725.689A.713.713,0,0,0,22.389,75.537Zm0-3a.875.875,0,1,1,0,.024Zm0-3.325a1.054,1.054,0,1,1,0,.024Zm0,8.908a.521.521,0,1,1,0,.024ZM17.644,61.531a1.42,1.42,0,1,0,1.42,1.42,1.42,1.42,0,0,0-1.42-1.42Zm0-4.391a1.594,1.594,0,1,0,1.133.467A1.6,1.6,0,0,0,17.644,57.14Zm0,8.423a1.24,1.24,0,1,0,.9.35A1.246,1.246,0,0,0,17.644,65.563Zm0,9.975a.713.713,0,1,0,.713.689.713.713,0,0,0-.713-.689Zm0-3a.875.875,0,1,1,0,.024Zm0-3.325a1.054,1.054,0,1,1,0,.024Zm0,8.908a.533.533,0,1,0,.533.533.527.527,0,0,0-.533-.509ZM12.93,61.531a1.42,1.42,0,1,0,1.42,1.42,1.42,1.42,0,0,0-1.42-1.42Zm0-4.391a1.594,1.594,0,1,0,1.133.467,1.6,1.6,0,0,0-1.133-.467Zm0,8.423a1.24,1.24,0,1,0,.881.361A1.246,1.246,0,0,0,12.93,65.563Zm0,9.975a.713.713,0,1,0,.725.689A.713.713,0,0,0,12.93,75.537Zm0-3a.875.875,0,1,1,0,.024Zm0-3.325a1.054,1.054,0,1,1,0,.024Zm0,8.908a.521.521,0,1,1,0,.024Z" transform="translate(-0.108 -18.759)" opacity="0.8" fill="url(#linear-gradient-3)"/>
  </g>
</svg>
