<svg xmlns="http://www.w3.org/2000/svg" xmlns:xlink="http://www.w3.org/1999/xlink" width="58.887" height="54.397" viewBox="0 0 58.887 54.397">
  <defs>
    <clipPath id="clip-path">
      <path id="Path_49" data-name="Path 49" d="M89.971,28.659a6.089,6.089,0,0,1-1.7,2.183,7.564,7.564,0,0,1-2.6,1.352,11.216,11.216,0,0,1-3.34.468,15.024,15.024,0,0,1-5.049-.884,13.237,13.237,0,0,1-4.5-2.723l2.924-3.5a14.666,14.666,0,0,0,3.165,1.995,8.448,8.448,0,0,0,3.555.741,4.3,4.3,0,0,0,2.4-.565,1.781,1.781,0,0,0,.851-1.56v-.1a1.95,1.95,0,0,0-.175-.851,1.78,1.78,0,0,0-.65-.689,7.284,7.284,0,0,0-1.391-.65,23.29,23.29,0,0,0-2.307-.65,27.983,27.983,0,0,1-3.093-.936,8.669,8.669,0,0,1-2.352-1.3,5.2,5.2,0,0,1-1.488-1.865,6.5,6.5,0,0,1-.533-2.794V16.26a6.5,6.5,0,0,1,.533-2.781,6.264,6.264,0,0,1,1.612-2.138A7.1,7.1,0,0,1,78.32,9.957,9.851,9.851,0,0,1,81.5,9.47a13.438,13.438,0,0,1,4.549.741,13.153,13.153,0,0,1,3.808,2.125l-2.567,3.73a16.648,16.648,0,0,0-2.963-1.625,7.544,7.544,0,0,0-2.892-.591,3.483,3.483,0,0,0-2.17.559,1.722,1.722,0,0,0-.728,1.4v.065a1.949,1.949,0,0,0,.24.949,1.852,1.852,0,0,0,.754.728,7.148,7.148,0,0,0,1.5.611c.65.188,1.436.416,2.4.65a22.919,22.919,0,0,1,3.048,1.014,8.493,8.493,0,0,1,2.255,1.345,5.2,5.2,0,0,1,1.384,1.852,6.271,6.271,0,0,1,.468,2.541v.065a7.018,7.018,0,0,1-.617,3.035Z" transform="translate(-72.79 -9.469)" fill="none"/>
    </clipPath>
    <linearGradient id="linear-gradient" x1="0.5" y1="1" x2="0.5" y2="-0.001" gradientUnits="objectBoundingBox">
      <stop offset="0" stop-color="#fff"/>
      <stop offset="1" stop-color="#35a8e0"/>
    </linearGradient>
    <linearGradient id="linear-gradient-2" x1="0.5" y1="0" x2="0.5" y2="1.001" xlink:href="#linear-gradient"/>
  </defs>
  <g id="Sheffield_Haworth__Systems_Logo__WO_Stack" data-name="Sheffield Haworth__Systems Logo__WO_Stack" transform="translate(-10 -9.469)">
    <g id="Group_29" data-name="Group 29" transform="translate(50.802 9.469)" clip-path="url(#clip-path)">
      <rect id="Rectangle_184" data-name="Rectangle 184" width="0.019" height="23.153" transform="translate(17.766 0.001)" fill="#ebf6fc"/>
      <rect id="Rectangle_185" data-name="Rectangle 185" width="0.89" height="23.153" transform="translate(16.882 0.001)" fill="#ecf7fc"/>
      <rect id="Rectangle_186" data-name="Rectangle 186" width="0.89" height="23.153" transform="translate(15.992 0.001)" fill="#edf7fc"/>
      <rect id="Rectangle_187" data-name="Rectangle 187" width="0.89" height="23.153" transform="translate(15.102 0.001)" fill="#eef8fc"/>
      <rect id="Rectangle_188" data-name="Rectangle 188" width="0.89" height="23.153" transform="translate(14.212 0.001)" fill="#eff8fd"/>
      <rect id="Rectangle_189" data-name="Rectangle 189" width="0.89" height="23.153" transform="translate(13.328 0.001)" fill="#f0f9fd"/>
      <rect id="Rectangle_190" data-name="Rectangle 190" width="0.89" height="23.153" transform="translate(12.438 0.001)" fill="#f1f9fd"/>
      <rect id="Rectangle_191" data-name="Rectangle 191" width="0.89" height="23.153" transform="translate(11.547 0.001)" fill="#f2f9fd"/>
      <rect id="Rectangle_192" data-name="Rectangle 192" width="0.89" height="23.153" transform="translate(10.664 0.001)" fill="#f3fafd"/>
      <rect id="Rectangle_193" data-name="Rectangle 193" width="0.89" height="23.153" transform="translate(9.773 0.001)" fill="#f4fafd"/>
      <rect id="Rectangle_194" data-name="Rectangle 194" width="0.89" height="23.153" transform="translate(8.883 0.001)" fill="#f5fbfd"/>
      <rect id="Rectangle_195" data-name="Rectangle 195" width="0.89" height="23.153" transform="translate(7.999 0.001)" fill="#f6fbfe"/>
      <rect id="Rectangle_196" data-name="Rectangle 196" width="0.89" height="23.153" transform="translate(7.109 0.001)" fill="#f7fcfe"/>
      <rect id="Rectangle_197" data-name="Rectangle 197" width="0.89" height="23.153" transform="translate(6.219 0.001)" fill="#f8fcfe"/>
      <rect id="Rectangle_198" data-name="Rectangle 198" width="0.89" height="23.153" transform="translate(5.335 0.001)" fill="#f9fcfe"/>
      <rect id="Rectangle_199" data-name="Rectangle 199" width="0.89" height="23.153" transform="translate(4.445 0.001)" fill="#fafdfe"/>
      <rect id="Rectangle_200" data-name="Rectangle 200" width="0.89" height="23.153" transform="translate(3.555 0.001)" fill="#fbfdfe"/>
      <rect id="Rectangle_201" data-name="Rectangle 201" width="0.89" height="23.153" transform="translate(2.671 0.001)" fill="#fcfeff"/>
      <rect id="Rectangle_202" data-name="Rectangle 202" width="0.89" height="23.153" transform="translate(1.781 0.001)" fill="#fdfeff"/>
      <rect id="Rectangle_203" data-name="Rectangle 203" width="0.89" height="23.153" transform="translate(0.89 0.001)" fill="#feffff"/>
      <rect id="Rectangle_204" data-name="Rectangle 204" width="0.89" height="23.153" transform="translate(0.006 0.001)" fill="#fff"/>
    </g>
    <path id="Path_50" data-name="Path 50" d="M75.341,70.626V80.756H72.8V58.24h2.541v10h13v-10h2.541V80.756H88.331V70.626Z" transform="translate(-21.991 -17.079)" fill="#fff"/>
    <circle id="Ellipse_28" data-name="Ellipse 28" cx="1.923" cy="1.923" r="1.923" transform="translate(40.834 34.8)" fill="#fff"/>
    <circle id="Ellipse_29" data-name="Ellipse 29" cx="1.923" cy="1.923" r="1.923" transform="translate(35.687 34.8)" fill="#fff"/>
    <circle id="Ellipse_30" data-name="Ellipse 30" cx="1.923" cy="1.923" r="1.923" transform="translate(30.541 34.8)" fill="#fff"/>
    <circle id="Ellipse_31" data-name="Ellipse 31" cx="1.923" cy="1.923" r="1.923" transform="translate(25.394 34.8)" fill="#fff"/>
    <circle id="Ellipse_32" data-name="Ellipse 32" cx="1.923" cy="1.923" r="1.923" transform="translate(20.248 34.8)" fill="#fff"/>
    <circle id="Ellipse_33" data-name="Ellipse 33" cx="1.923" cy="1.923" r="1.923" transform="translate(15.101 34.8)" fill="#fff"/>
    <circle id="Ellipse_34" data-name="Ellipse 34" cx="1.923" cy="1.923" r="1.923" transform="translate(10 34.8)" fill="#fff"/>
    <path id="Path_51" data-name="Path 51" d="M41.311,27.267a1.54,1.54,0,1,1,1.54,1.54,1.54,1.54,0,0,1-1.54-1.54Zm1.54,6.3a1.758,1.758,0,1,1,.026,0Zm0-9.137a1.378,1.378,0,1,1,.026,0Zm0-10.82a.818.818,0,1,1,.026,0Zm0,3.249a.68.68,0,1,1,.026-.026Zm0,3.607a.818.818,0,1,1,.026-.026Zm0-9.663a.237.237,0,1,1,.026-.026Zm-5.121,18a1.54,1.54,0,1,0-1.54-1.54A1.54,1.54,0,0,0,37.73,28.807Zm0,4.763a1.735,1.735,0,1,0-1.735-1.735A1.735,1.735,0,0,0,37.73,33.57Zm0-9.137a1.345,1.345,0,1,0-.953-.4,1.352,1.352,0,0,0,.953.4Zm0-10.82a.773.773,0,1,0-.767-.767.773.773,0,0,0,.767.767Zm0,3.249a.4.4,0,1,1,0-.026Zm0,3.607a1.144,1.144,0,1,1,0-.026Zm0-9.663a.565.565,0,1,1,0-.026Zm-5.147,18a1.54,1.54,0,1,0-1.54-1.54A1.54,1.54,0,0,0,32.583,28.807Zm0,4.763a1.735,1.735,0,1,0-1.729-1.735,1.735,1.735,0,0,0,1.729,1.735Zm0-9.137a1.352,1.352,0,1,0-1.345-1.352,1.352,1.352,0,0,0,1.345,1.352Zm0-10.82a.773.773,0,1,0-.767-.767.773.773,0,0,0,.767.767Zm0,3.249a.949.949,0,1,1,0-.026Zm0,3.607a1.144,1.144,0,1,1,0-.026Zm0-9.663a.565.565,0,1,1,0-.026Zm-5.147,18a1.54,1.54,0,1,0-1.54-1.54,1.54,1.54,0,0,0,1.54,1.54Zm0,4.763a1.735,1.735,0,1,0-1.722-1.735,1.735,1.735,0,0,0,1.722,1.735Zm0-9.137a1.352,1.352,0,1,0-1.345-1.352,1.352,1.352,0,0,0,1.345,1.352Zm0-10.82a.773.773,0,1,0-.767-.767.773.773,0,0,0,.767.767Zm0,3.249a.949.949,0,1,1,0-.026Zm0,3.607a1.144,1.144,0,1,1,0-.026Zm0-9.663a.565.565,0,1,1,0-.026Zm-5.147,18a1.54,1.54,0,1,0-1.54-1.54A1.54,1.54,0,0,0,22.29,28.807Zm0,4.763a1.735,1.735,0,1,0-1.729-1.735A1.735,1.735,0,0,0,22.29,33.57Zm0-9.137a1.352,1.352,0,1,0-1.345-1.352,1.352,1.352,0,0,0,1.345,1.352Zm0-10.82a.773.773,0,1,0-.767-.767.773.773,0,0,0,.767.767Zm0,3.249a.949.949,0,1,1,0-.026Zm0,3.607a1.171,1.171,0,1,1,0-.026Zm0-9.663a.565.565,0,1,1,0-.026Zm-5.147,18a1.54,1.54,0,1,0-1.54-1.54,1.54,1.54,0,0,0,1.54,1.54Zm0,4.763a1.735,1.735,0,1,0-1.729-1.735,1.735,1.735,0,0,0,1.729,1.735Zm0-9.137A1.352,1.352,0,1,0,15.8,23.082a1.352,1.352,0,0,0,1.345,1.352Zm0-10.82a.773.773,0,1,0-.767-.767.773.773,0,0,0,.767.767Zm0,3.249a.949.949,0,1,1,0-.026Zm0,3.607a.487.487,0,1,1,0-.026Zm0-9.663a.565.565,0,1,1,0-.026Zm-5.075,18a1.54,1.54,0,1,0-1.54-1.54,1.54,1.54,0,0,0,1.54,1.54Zm0,4.763a1.735,1.735,0,1,0-1.729-1.735,1.735,1.735,0,0,0,1.729,1.735Zm0-9.137a1.352,1.352,0,1,0-1.345-1.352,1.352,1.352,0,0,0,1.345,1.352Zm0-10.82a.773.773,0,1,0-.767-.767.773.773,0,0,0,.767.767Zm0,3.249a.949.949,0,1,1,0-.026Zm0,3.607a1.144,1.144,0,1,1,0-.026Zm0-9.663a.565.565,0,1,1,0-.026Z" transform="translate(-0.119 -0.063)" opacity="0.8" fill="url(#linear-gradient)"/>
    <path id="Path_52" data-name="Path 52" d="M44.4,62.673a1.54,1.54,0,1,1-1.54-1.54A1.54,1.54,0,0,1,44.4,62.673Zm-1.54-6.3a1.735,1.735,0,1,0,1.735,1.709A1.735,1.735,0,0,0,42.859,56.37Zm0,9.137A1.352,1.352,0,1,0,44.2,66.852,1.352,1.352,0,0,0,42.859,65.506Zm0,10.82a.773.773,0,1,0,.767.767A.773.773,0,0,0,42.859,76.326Zm0-3.249a.949.949,0,1,1,0,.026Zm0-3.607a1.144,1.144,0,1,1,0,.026Zm0,9.663a.565.565,0,1,1,0,.026Zm-5.147-18a1.54,1.54,0,1,0,1.54,1.54,1.54,1.54,0,0,0-1.54-1.54Zm0-4.763a1.735,1.735,0,1,0,1.735,1.709A1.735,1.735,0,0,0,37.713,56.37Zm0,9.137a1.352,1.352,0,1,0,1.345,1.345,1.352,1.352,0,0,0-1.345-1.345Zm0,10.82a.767.767,0,1,0,.546.222A.773.773,0,0,0,37.713,76.326Zm0-3.249a.406.406,0,1,1,0,.026Zm0-3.607a1.143,1.143,0,1,1,0,.026Zm0,9.663a.565.565,0,1,1,0,.026Zm-5.147-18a1.54,1.54,0,1,0,1.54,1.54,1.54,1.54,0,0,0-1.54-1.54Zm0-4.763A1.735,1.735,0,1,0,34.3,58.079,1.735,1.735,0,0,0,32.566,56.37Zm0,9.137a1.345,1.345,0,1,0,.955.392A1.352,1.352,0,0,0,32.566,65.506Zm0,10.82a.767.767,0,1,0,.546.222A.773.773,0,0,0,32.566,76.326Zm0-3.249a.949.949,0,1,1,0,.026Zm0-3.607a1.144,1.144,0,1,1,0,.026Zm0,9.663a.565.565,0,1,1,0,.026Zm-5.147-18a1.54,1.54,0,1,0,1.527,1.54,1.54,1.54,0,0,0-1.527-1.54Zm0-4.763a1.735,1.735,0,1,0,1.735,1.709A1.735,1.735,0,0,0,27.419,56.37Zm0,9.137a1.345,1.345,0,1,0,.955.392A1.352,1.352,0,0,0,27.419,65.506Zm0,10.82a.767.767,0,1,0,.546.222A.773.773,0,0,0,27.419,76.326Zm0-3.249a.949.949,0,1,1,0,.026Zm0-3.607a1.144,1.144,0,1,1,0,.026Zm0,9.663a.565.565,0,1,1,0,.026Zm-5.147-18a1.54,1.54,0,1,0,1.54,1.54A1.54,1.54,0,0,0,22.273,61.133Zm0-4.763a1.735,1.735,0,1,0,1.735,1.709A1.735,1.735,0,0,0,22.273,56.37Zm0,9.137a1.345,1.345,0,1,0,.955.392A1.352,1.352,0,0,0,22.273,65.506Zm0,10.82a.767.767,0,1,0,.546.222A.773.773,0,0,0,22.273,76.326Zm0-3.249a.949.949,0,1,1,0,.026Zm0-3.607a1.144,1.144,0,1,1,0,.026Zm0,9.663a.565.565,0,1,1,0,.026Zm-5.147-18a1.54,1.54,0,1,0,1.54,1.54A1.54,1.54,0,0,0,17.126,61.133Zm0-4.763a1.735,1.735,0,1,0,1.735,1.709A1.735,1.735,0,0,0,17.126,56.37Zm0,9.137a1.345,1.345,0,1,0,.955.392A1.352,1.352,0,0,0,17.126,65.506Zm0,10.82a.767.767,0,1,0,.546.222A.773.773,0,0,0,17.126,76.326Zm0-3.249a.4.4,0,1,1,0,.026Zm0-3.607a1.144,1.144,0,1,1,0,.026Zm0,9.663a.578.578,0,1,0,.578.578.572.572,0,0,0-.578-.552Zm-5.075-18a1.54,1.54,0,1,0,1.54,1.54,1.54,1.54,0,0,0-1.54-1.54Zm0-4.763a1.735,1.735,0,1,0,1.709,1.709A1.735,1.735,0,0,0,12.051,56.37Zm0,9.137a1.352,1.352,0,1,0,1.3,1.345,1.352,1.352,0,0,0-1.3-1.345Zm0,10.82a.767.767,0,1,0,.546.222A.773.773,0,0,0,12.051,76.326Zm0-3.249a.949.949,0,1,1,0,.026Zm0-3.607a1.144,1.144,0,1,1,0,.026Zm0,9.663a.565.565,0,1,1,0,.026Z" transform="translate(-0.102 -16.424)" opacity="0.8" fill="url(#linear-gradient-2)"/>
  </g>
</svg>
