<svg xmlns="http://www.w3.org/2000/svg" width="41.944" height="41.944" viewBox="0 0 41.944 41.944">
  <g id="user-avatar-filled-alt" transform="translate(-2.25 -2.25)">
    <path id="Path_5" data-name="Path 5" d="M23.222,2.25A20.972,20.972,0,1,0,44.194,23.222,20.972,20.972,0,0,0,23.222,2.25ZM35.206,36.583v-.911a7.8,7.8,0,0,0-7.49-7.956H18.728a7.79,7.79,0,0,0-7.475,7.955c0,.016-.015.033-.015.049V36.6a17.984,17.984,0,1,1,23.968-.015Z" transform="translate(0 0)" fill="#fff"/>
    <path id="Path_6" data-name="Path 6" d="M19.865,7.875a7.49,7.49,0,1,0,7.49,7.49,7.49,7.49,0,0,0-7.49-7.49Z" transform="translate(3.357 1.865)" fill="#fff"/>
  </g>
</svg>
