<svg xmlns="http://www.w3.org/2000/svg" width="100.742" height="100.742" viewBox="0 0 100.742 100.742">
  <g id="bxs-videos" transform="translate(-3 -3)">
    <path id="Path_75" data-name="Path 75" d="M16.5,49.3,51.76,29.148,16.5,9Z" transform="translate(31.834 14.148)" fill="none"/>
    <path id="Path_76" data-name="Path 76" d="M13.074,12H3V72.445A10.082,10.082,0,0,0,13.074,82.52H73.52V72.445H13.074Z" transform="translate(0 21.223)" fill="#a982f8"/>
    <path id="Path_77" data-name="Path 77" d="M79.52,3H19.074A10.074,10.074,0,0,0,9,13.074V73.52A10.074,10.074,0,0,0,19.074,83.594H79.52A10.074,10.074,0,0,0,89.594,73.52V13.074A10.074,10.074,0,0,0,79.52,3ZM34.186,63.445v-40.3L69.445,43.3Z" transform="translate(14.148)" fill="#a982f8"/>
  </g>
</svg>
